HIERARCHY
ROOT Hips
{
  OFFSET -32.5998 29.0326 120.673
  CHANNELS 6 Xposition Yposition Zposition Zrotation Xrotation Yrotation
  JOINT LeftUpLeg
  {
    OFFSET 8.64259 1.95398 -2.38835
    CHANNELS 3 Zrotation Xrotation Yrotation
    JOINT LeftLeg
    {
      OFFSET 43.7702 0 0
      CHANNELS 3 Zrotation Xrotation Yrotation
      JOINT LeftFoot
      {
        OFFSET 40.6238 0 0
        CHANNELS 3 Zrotation Xrotation Yrotation
        JOINT LeftToeBase
        {
          OFFSET 12.7242 0 0
          CHANNELS 3 Zrotation Xrotation Yrotation
          End Site
          {
            OFFSET 0 0 0
          }
        }
      }
    }
  }
  JOINT RightUpLeg
  {
    OFFSET -8.2249 1.95398 -2.59336
    CHANNELS 3 Zrotation Xrotation Yrotation
    JOINT RightLeg
    {
      OFFSET 43.5653 0 0
      CHANNELS 3 Zrotation Xrotation Yrotation
      JOINT RightFoot
      {
        OFFSET 40.6238 0 0
        CHANNELS 3 Zrotation Xrotation Yrotation
        JOINT RightToeBase
        {
          OFFSET 12.7242 0 0
          CHANNELS 3 Zrotation Xrotation Yrotation
          End Site
          {
            OFFSET 0 0 0
          }
        }
      }
    }
  }
  JOINT Spine
  {
    OFFSET 0.165834 0.87714 6.61349
    CHANNELS 3 Zrotation Xrotation Yrotation
    JOINT Spine1
    {
      OFFSET 7.38963 1.71661e-005 0
      CHANNELS 3 Zrotation Xrotation Yrotation
      JOINT Spine2
      {
        OFFSET 11.9445 1.14441e-005 0
        CHANNELS 3 Zrotation Xrotation Yrotation
        JOINT Spine3
        {
          OFFSET 14.7254 4.19617e-005 0
          CHANNELS 3 Zrotation Xrotation Yrotation
          JOINT Spine4
          {
            OFFSET 10.9679 0 0
            CHANNELS 3 Zrotation Xrotation Yrotation
            JOINT RightShoulder
            {
              OFFSET 2.46616 -1.6653 3.69651
              CHANNELS 3 Zrotation Xrotation Yrotation
              JOINT RightArm
              {
                OFFSET 13.0012 0 0
                CHANNELS 3 Zrotation Xrotation Yrotation
                JOINT RightForeArm
                {
                  OFFSET 28.7848 1.62311e-005 0
                  CHANNELS 3 Zrotation Xrotation Yrotation
                  JOINT RightHand
                  {
                    OFFSET 26.5688 1.62095e-005 0
                    CHANNELS 3 Zrotation Xrotation Yrotation
                    End Site
                    {
                      OFFSET 0 0 0
                    }
                  }
                }
              }
            }
            JOINT LeftShoulder
            {
              OFFSET 2.38034 -1.29275 -3.7523
              CHANNELS 3 Zrotation Xrotation Yrotation
              JOINT LeftArm
              {
                OFFSET 16.3182 6.07031e-005 0
                CHANNELS 3 Zrotation Xrotation Yrotation
                JOINT LeftForeArm
                {
                  OFFSET 27.0901 0 0
                  CHANNELS 3 Zrotation Xrotation Yrotation
                  JOINT LeftHand
                  {
                    OFFSET 24.5451 1.51738e-005 0
                    CHANNELS 3 Zrotation Xrotation Yrotation
                    End Site
                    {
                      OFFSET 0 0 0
                    }
                  }
                }
              }
            }
            JOINT Neck
            {
              OFFSET 5.0226 -0.0266342 0
              CHANNELS 3 Zrotation Xrotation Yrotation
              JOINT Head
              {
                OFFSET 6.69364 2.86102e-005 0
                CHANNELS 3 Zrotation Xrotation Yrotation
                End Site
                {
                  OFFSET 0 0 0
                }
              }
            }
          }
        }
      }
    }
  }
}
MOTION
Frames:	18
Frame Time:	0.0416667
-69.7 98.415 86.612 -102.995 -44.5231 -99.5187 -173.75 5.36739 90.5418 -29.8782 15.5506 0.118598 75.3491 8.42926 -3.26523 17.7432 -7.94913 5.93671 170.213 3.01862 85.0551 -56.5964 -21.1869 -2.47221 63.0987 -1.07375 -0.540097 28.8085 -0.518701 2.07103 1.11781 8.20942 -89.8382 10.4554 2.30092 0.118194 -1.21351 2.30387 0.0167571 -23.7635 2.15895 0.804573 -3.75084 2.15895 0.804563 91.5209 -26.2074 -105.096 34.374 -11.6966 -10.9165 -16.4474 -14.0041 -29.1203 -13.1572 -0.343264 -2.21622 -84.8438 -44.7376 85.7664 -35.6895 18.9915 19.4372 10.8664 0.823216 -18.8004 0.518883 0.0426389 0.902718 -1.84756 -5.19201 -10.6332 -4.06618 -3.81083 -4.68206 
-65.5981 97.5507 81.8651 -101.307 -44.7983 -98.8734 -176.08 11.8611 88.8725 -32.1383 13.6845 1.24318 74.3131 7.34155 -4.50727 14.1422 -12.4112 10.0657 173.764 -5.20736 84.1217 -51.5266 -37.8606 -8.73681 65.1408 -3.23809 -0.0823937 32.1142 -1.95414 2.22155 1.62114 8.01135 -89.8701 10.8555 3.28791 -0.0491166 -0.81126 3.28255 -0.193939 -23.3779 3.1505 0.942313 -3.36526 3.15051 0.942304 90.764 -26.0289 -106.767 32.5321 -13.5766 -13.7958 -16.5993 -14.3593 -29.3598 -11.2404 -0.225682 -2.95345 -83.8154 -45.4859 87.5073 -40.5489 15.9885 23.0362 10.3061 -1.77499 -21.079 -1.76846 -0.0648483 -0.0495156 -0.976632 -6.19444 -8.74157 -3.80409 -4.97118 -5.56679 
-60.5666 96.8065 74.5871 -98.4691 -44.8591 -97.2979 -177.86 19.2294 88.7344 -30.1683 13.8711 1.9422 65.9976 2.40553 -3.85745 16.2268 -10.2572 8.517 177.551 -8.0675 85.8959 -43.6397 -43.7382 -13.7257 72.7887 -9.31705 -2.30498 34.6273 -3.28566 3.71574 1.95591 7.9641 -89.9711 10.9559 3.90742 -0.312546 -0.709209 3.88986 -0.484476 -23.2902 3.82042 0.878026 -3.27754 3.82042 0.878018 90.7667 -24.2081 -107.533 31.7536 -15.6629 -20.2079 -14.1733 -11.1993 -27.0787 -11.5252 -0.19878 -3.31427 -83.0881 -48.0876 88.9398 -42.0133 15.0338 21.7124 9.3816 -3.90229 -19.5861 -2.91243 -0.104845 -1.58764 1.85416 -5.82972 -2.55627 -4.19096 -5.31665 -7.7005 
-55.0245 96.403 65.633 -96.549 -50.5823 -96.199 -177.562 22.6003 89.2724 -19.5013 22.7181 0.240464 63.2032 1.69554 -1.36706 22.7406 -7.82452 10.6963 176.973 -0.921827 86.6362 -41.3657 -38.4926 -9.67965 78.9474 -13.4142 -2.33943 31.04 -1.57876 2.59623 1.79191 8.24971 -90.1501 10.3884 3.50097 -0.606397 -1.27809 3.47086 -0.760072 -23.8508 3.52115 0.475155 -3.83817 3.52115 0.475152 90.0204 -23.6898 -109.38 28.6388 -16.9289 -26.7843 -12.66 -8.2089 -26.5855 -12.1565 -0.170236 -3.67512 -82.8152 -48.8046 89.4307 -40.2975 13.5856 17.6943 9.86988 -4.1295 -21.7965 -1.58558 -0.0737511 -1.78842 8.09817 -4.13387 3.85842 -4.19598 -4.81203 -8.10093 
-51.202 97.5138 58.128 -93.1176 -62.0677 -94.3495 -175.263 22.7856 87.1371 -11.0628 -6.16476 -2.99313 64.4129 3.31923 -3.83066 23.6161 -7.20556 10.4459 174.279 3.67686 87.8734 -34.7263 -31.4377 -4.14902 78.3373 -12.9153 -3.39506 27.3188 0.212306 1.72411 1.59359 8.19958 -90.1996 10.4865 3.0827 -0.670239 -1.181 3.05022 -0.805392 -23.7455 3.14149 0.288156 -3.73286 3.14147 0.288148 89.6306 -24.985 -109.622 29.4874 -19.4568 -26.8589 -11.7995 -7.44954 -26.2261 -11.4698 -0.202465 -3.24798 -83.0722 -46.1853 88.7686 -38.2535 12.2945 14.0136 9.94522 -4.99709 -22.4572 -0.152492 -0.0557645 -2.57589 11.7818 -2.27871 4.92467 -5.85427 -3.31635 -4.412 
-48.4536 100.031 52.5828 -89.5756 -76.9245 -93.6834 -174.081 23.4576 83.8061 -24.7624 -13.3238 -3.4964 67.0651 3.00864 -1.73064 16.7373 -9.6793 7.99886 173.366 4.13993 87.6136 -24.9226 -17.9281 -2.11141 73.9137 -9.42463 -3.49837 24.5708 1.58009 1.16619 1.30277 8.03973 -89.9109 10.7989 2.63525 -0.0679441 -0.869331 2.62972 -0.183939 -23.4249 2.53375 0.727724 -3.41229 2.53376 0.727733 89.6651 -25.6791 -109.234 32.8109 -24.9639 -25.0903 -11.1131 -10.703 -23.7244 -8.81318 0.0164726 -5.67091 -83.1792 -42.9621 88.2419 -35.9323 9.94794 11.2772 9.99072 -6.02449 -22.2204 4.09704 -0.0439161 -3.57478 12.1779 0.70088 5.40713 -6.9524 -0.572551 -2.13287 
-45.7509 100.886 49.0768 105.073 -87.6383 98.7396 -172.214 17.5101 86.2724 -33.9378 -0.5857 -3.26232 70.8848 6.23148 0.416918 13.7491 -10.1558 6.13313 171.582 4.14295 85.507 -21.7326 -4.46287 -0.993543 72.468 -7.25976 -1.8116 23.6495 2.26098 0.281354 1.12662 7.92875 -89.5926 11.0106 2.43158 0.577812 -0.658156 2.45465 0.470169 -23.2072 2.14547 1.28218 -3.19459 2.14548 1.28218 90.3184 -26.0581 -107.692 37.9931 -28.3078 -20.3796 -11.7881 -8.20034 -28.3407 -8.12235 0.00259092 -5.55824 -82.7987 -41.5559 88.7137 -34.953 8.30261 11.7882 12.6443 -1.57457 -25.3112 3.25712 0.0716851 -1.05054 7.90377 5.25808 6.11533 -6.70751 3.86794 0.870036 
-41.9342 100.981 46.2911 95.3535 -71.882 89.8397 -170.35 11.3947 93.6112 -29.5064 -9.22624 -1.92864 71.8683 7.27425 2.39638 8.25035 -12.4091 4.90162 169.285 1.73804 84.2254 -17.9657 6.8985 0.892108 69.6386 -5.88564 -0.633048 26.8749 1.32548 -1.7233 0.878683 7.73056 -89.6861 11.4105 1.89507 0.435213 -0.259153 1.91239 0.351354 -22.8028 1.67663 0.984772 -2.79012 1.67664 0.984774 90.3839 -27.0693 -107.139 42.5441 -25.5615 -13.4144 -14.7516 -3.76781 -39.6837 -8.90457 -0.132326 -3.65002 -82.3825 -41.8943 89.4469 -37.3999 8.20188 15.2536 13.1498 -0.130323 -24.4057 1.47104 0.0283949 -0.932065 1.61963 11.6782 7.82586 -7.02536 10.1867 5.77268 
-36.2478 100.56 42.2784 94.3992 -53.1941 88.653 -168.944 8.96953 95.5004 -21.238 -27.4728 -3.06705 71.8136 7.53772 1.44968 9.49313 -11.5101 4.60231 165.643 0.680414 80.6727 -19.0865 20.2046 3.10702 67.3622 -3.9341 1.414 29.4502 0.608977 -3.749 0.635264 7.67133 -89.834 11.5307 1.34143 0.193151 -0.139578 1.34866 0.133897 -22.6794 1.22138 0.587441 -2.66677 1.22137 0.587433 90.7395 -27.2137 -106.342 44.5255 -17.8832 -10.0199 -18.3471 -4.68207 -44.9028 -8.13722 -0.121779 -3.65502 -82.6214 -42.8292 89.1462 -40.6327 11.8324 16.1186 11.7937 -0.0573235 -19.4426 -1.63408 -0.070292 -1.23042 -1.79558 15.6914 10.4175 -9.05082 13.9243 8.2938 
-28.6673 99.4365 36.2974 95.0238 -33.4887 87.5856 -168.19 8.87332 91.3631 -23.0919 -25.8983 -5.49303 70.6216 6.59642 -0.484698 13.5712 -9.08879 4.21326 160.524 -1.71916 73.7157 -22.0379 26.7504 5.0019 62.5839 0.207627 1.59479 31.7202 0.412421 -7.70489 0.674787 7.72136 -90.0126 11.4325 1.33699 -0.160507 -0.237826 1.3286 -0.219203 -22.7783 1.32339 0.248805 -2.76567 1.32339 0.248805 91.4188 -25.9216 -105.421 43.9338 -9.88039 -6.89453 -16.101 -3.61583 -41.4793 -11.0883 -0.164195 -3.6089 -83.2192 -44.0493 88.3004 -41.3924 13.9726 16.3973 10.5382 -1.60172 -18.0116 -2.7411 -0.101751 -1.07197 -4.15444 14.6066 11.195 -8.28484 13.0624 8.32673 
-20.244 98.2467 29.0261 96.0352 -17.2203 86.0415 -168.868 7.07206 84.9447 -26.743 -12.5284 -6.06297 75.5856 8.92821 -4.29841 13.7052 -9.82528 5.5223 158.147 -0.644191 66.205 -31.2382 18.7925 1.41504 60.6907 2.64321 0.0244316 23.6553 2.67918 -1.67258 0.943438 7.76227 -89.9865 11.3517 1.88377 -0.161066 -0.317833 1.87483 -0.243851 -22.8638 1.84502 0.412732 -2.85119 1.84507 0.412732 92.7557 -25.8446 -102.598 40.5509 -9.52618 -2.82958 -16.5877 -8.62961 -34.3367 -11.2178 -0.155723 -3.7653 -83.9162 -44.2977 87.2013 -40.9935 12.9596 16.3947 10.5127 -1.96942 -18.7068 -4.35912 -0.137481 -1.96165 -1.57562 12.4021 7.41931 -9.00633 10.9465 9.3474 
-14.394 97.4413 22.9527 96.7696 -1.08282 84.0943 -172.689 4.79539 80.6511 -29.2786 -2.81281 -4.77015 81.1204 12.2997 -2.79266 9.33343 -12.2381 5.54629 169.249 -0.947194 73.1441 -51.9322 -10.0322 -8.26415 66.2809 -2.84419 -3.66261 16.9711 3.61599 5.08049 0.549644 7.85057 -90.1006 11.1755 1.04724 -0.302687 -0.495123 1.03291 -0.348496 -23.0334 1.08978 0.0260718 -3.02079 1.08982 0.02607 92.7653 -24.9891 -102.879 40.9759 -7.3506 1.09127 -12.8931 -6.89367 -25.309 -9.16624 -0.191059 -2.85635 -84.3954 -47.1114 86.796 -36.9307 14.7208 12.4121 9.14657 -4.1209 -13.5836 -4.41078 -0.137649 -1.76564 -0.711025 11.9878 9.36385 -7.12254 10.4262 6.88977 
-9.74167 98.3298 19.2241 97.1061 14.1023 85.5479 -175.157 -0.115849 81.8458 -25.3673 12.5471 -2.62403 80.4093 12.575 -1.29539 6.97476 -12.8872 4.59136 -179.874 7.26694 85.6892 -65.0786 -9.76837 -8.79778 71.7714 -6.90829 -5.97607 20.909 2.0515 4.77003 -0.166448 7.96863 -90.1968 10.9359 -0.422213 -0.351444 -0.735041 -0.437321 -0.332518 -23.2701 -0.29707 -0.462089 -3.25748 -0.29712 -0.462106 92.6358 -26.2685 -102.709 43.4204 -4.97564 5.641 -12.7619 -6.85342 -24.5633 -12.6178 -0.285703 -2.63352 -85.3693 -45.5894 85.0522 -31.2269 20.9509 1.58354 7.92433 -4.22425 -9.4021 -4.35069 -0.107557 -3.38462 0.128374 10.8276 5.76202 -6.39597 9.73063 7.34772 
-5.03474 99.8519 15.4832 97.3655 33.4599 86.325 -177.089 -4.79814 84.6713 -22.3691 30.6347 1.13476 75.6228 10.452 1.13211 4.83314 -12.3491 2.19137 179.11 17.5641 90.2787 -57.3834 -2.33282 -5.12959 72.1719 -6.31025 -3.00878 19.7867 2.97437 3.41731 -0.938762 8.16054 -90.4052 10.5477 -2.05586 -0.62074 -1.12169 -2.0812 -0.529614 -23.6663 -1.77426 -1.21006 -3.65368 -1.77424 -1.21006 93.3712 -25.5621 -101.37 48.7488 -6.79293 9.23096 -12.3407 -6.57351 -24.8458 -9.17994 -0.0277078 -5.0268 -86.5582 -44.4188 82.9654 -23.7079 20.7232 -12.393 9.30239 -2.59301 -14.882 -3.29419 -0.0938134 -4.01416 2.35522 7.31251 2.0057 -5.68012 6.78239 6.13021 
0.741649 99.3852 11.3412 97.6088 47.367 86.4537 -175.593 -8.26973 89.2116 -24.0956 44.1581 3.68454 77.6752 12.4003 1.28328 4.34183 -12.104 1.48787 177.893 21.4953 90.0652 -33.2651 -3.44464 -2.48257 67.5094 -4.23725 -2.02423 21.4098 2.50164 2.73796 -1.15062 8.33369 -90.5521 10.1971 -2.54457 -0.88016 -1.47159 -2.58083 -0.767258 -24.0198 -2.16239 -1.60446 -4.00715 -2.16237 -1.60445 93.2755 -26.5155 -101.273 50.7861 -8.05776 10.7673 -12.1139 -7.82071 -23.8609 -8.80856 -0.049418 -4.81462 -87.5356 -44.0196 81.3109 -15.7748 20.3333 -26.5532 10.219 -3.41966 -23.6143 -1.84034 -0.0966636 -5.81627 5.25459 3.16451 -3.28368 -5.03289 3.66186 4.92417 
8.35826 97.5903 5.6678 98.7064 54.6088 86.7232 -170.388 -13.4078 97.5771 -23.9016 54.8689 3.7547 81.0573 15.693 1.68355 4.28616 -12.4646 1.96235 177.088 19.191 91.7206 -9.27462 -3.67077 0.122093 63.4942 -2.93039 -0.169173 26.504 1.05364 -0.12137 -1.25017 8.42737 -90.679 10.006 -2.80023 -1.11692 -1.66236 -2.84669 -0.992522 -24.2117 -2.3351 -1.90714 -4.19907 -2.3351 -1.90713 93.0122 -28.1593 -101.298 48.1999 -9.91253 9.48152 -12.178 -8.98018 -23.6252 -7.53945 -0.00517578 -5.41082 -87.9507 -42.2179 80.2732 -14.2743 18.5333 -33.71 14.5688 0.649792 -31.8607 -0.980069 -0.101731 -5.18144 6.35128 0.818315 -7.88505 -4.17801 2.29739 5.32704 
17.4123 95.7293 -2.16386 100.688 54.2616 86.1848 -167.224 -20.1651 101.781 -26.3285 56.0178 5.63168 76.0163 12.4629 4.14985 8.84032 -8.44102 -0.553384 177.987 22.4134 95.368 -21.6047 -10.4069 0.283694 62.366 -0.290815 0.345875 25.179 1.23796 1.40989 -1.25015 8.32871 -90.7235 10.2019 -2.8211 -1.19675 -1.46642 -2.87102 -1.07137 -24.0152 -2.33102 -1.98953 -4.00256 -2.33101 -1.98953 92.9584 -29.0612 -101.132 43.62 -8.50976 6.69768 -12.5935 -9.45946 -23.3036 -10.307 -0.144369 -3.71126 -87.8325 -43.0824 80.6472 -15.6496 17.7746 -31.7253 14.2201 0.267225 -31.9751 0.67847 -0.0813412 -4.0251 5.46085 1.68858 -7.04068 -4.22934 2.94992 3.34572 
26.5262 94.7849 -11.1684 104.158 52.9293 85.6386 -168.257 -18.3024 102.701 -42.1282 46.8351 7.97448 61.0008 0.746635 0.339714 23.1975 1.79326 -8.45353 178.837 21.9899 99.6075 -37.8072 -11.3724 -0.164045 65.8682 -2.13299 -0.928783 20.7544 2.52114 3.5415 -1.13457 8.20495 -90.9932 10.4412 -2.71533 -1.73498 -1.22788 -2.78906 -1.61375 -23.7683 -2.06852 -2.4708 -3.7557 -2.06849 -2.4708 92.4507 -28.2698 -102.418 41.4475 -7.85959 4.4954 -12.6023 -9.56297 -23.0782 -12.9473 -0.248494 -3.03887 -87.5281 -45.3061 81.5796 -17.8875 21.9429 -28.1865 10.3698 -1.15434 -18.2764 0.189784 -0.104841 -4.99128 5.21022 2.47806 -3.60406 -5.89991 3.06942 1.44869 
